<svg xmlns="http://www.w3.org/2000/svg" width="30.744" height="91.827" viewBox="0 0 30.744 91.827"><defs><style>.a{fill:#777;}</style></defs><path class="a" d="M4749.079,3811.963a3.555,3.555,0,0,0-3.55-3.55h-.45a3.538,3.538,0,0,0-1.45.317v-.116a3.554,3.554,0,0,0-3.55-3.55h-.143c-.031,0-.059-.009-.09-.009s-.05.009-.077.009h-.14a3.524,3.524,0,0,0-1.448.316v-11.093a3.753,3.753,0,1,0-7.506,0v.746h0v10.052l-3.249-11.27a3.555,3.555,0,0,0-4.4-2.416l-.431.126a3.554,3.554,0,0,0-2.416,4.4l4.679,16.075-3.974,1.157a3.527,3.527,0,0,0-2.508,3.913c.1.873.885,3.714.587,5.824a10.771,10.771,0,0,0,1.787,7.618c.481.7,1.013,1.446,1.576,2.2a15.944,15.944,0,0,1,2.957,6.678,10.443,10.443,0,0,1,.176,1.728,10.016,10.016,0,0,0-.2,1.994,9.908,9.908,0,0,0,8.869,9.856v7.463a7.16,7.16,0,0,0-6.134,7.095v14.833h14.358v-14.833a7.185,7.185,0,0,0-6.136-7.094v-7.464a9.908,9.908,0,0,0,8.661-11.878,20.062,20.062,0,0,1,.742-6.8,1.216,1.216,0,0,0,.054-.185,26.662,26.662,0,0,1,.722-2.706,54.858,54.858,0,0,0,2.574-14.64,3.471,3.471,0,0,0,.114-.848Zm-10.9,1.2,0-.016v-4.358a1.662,1.662,0,0,1,1.465-1.625h.4a1.66,1.66,0,0,1,1.463,1.645v4.338a.9.9,0,0,0,.018.089v3.911a1.452,1.452,0,0,1-1.45,1.451h-.45a1.452,1.452,0,0,1-1.45-1.451Zm5.45-.922a1.664,1.664,0,0,1,1.636-1.39,1.7,1.7,0,0,1,1.665,1.664l-.018,3.424c0,.151-.015.3-.02.451a1.447,1.447,0,0,1-1.363.972h-.45a1.451,1.451,0,0,1-1.45-1.45Zm-16.757-.827-4.68-16.075a1.454,1.454,0,0,1,.988-1.8l.432-.126a1.43,1.43,0,0,1,1.1.124,1.434,1.434,0,0,1,.7.863l4.681,16.075-1.911.557Zm-6.266,4.455a1.431,1.431,0,0,1,.863-.695l3.885-1.131h0l1.666-.485,4.164-1.212a1.451,1.451,0,0,1,.369-.053h.069a1.452,1.452,0,0,1,.663.177,1.436,1.436,0,0,1,.7.863l.126.432a1.46,1.46,0,0,1-.988,1.8l-9.715,2.829a1.456,1.456,0,0,1-1.8-.985l-.125-.435A1.436,1.436,0,0,1,4720.606,3815.869Zm18.161,48.061a5.08,5.08,0,0,1,1.493,3.6v12.744h-10.181v-12.744a5.088,5.088,0,0,1,8.689-3.6Zm4.227-20.816a7.834,7.834,0,1,1-2.294-5.53,7.773,7.773,0,0,1,2.294,5.53Zm1.409-12.354a29.263,29.263,0,0,0-.766,2.859,15.727,15.727,0,0,0-.681,3.381,9.9,9.9,0,0,0-14.8-.9,10.124,10.124,0,0,0-1.173,1.418,18.32,18.32,0,0,0-2.989-6.059c-.547-.731-1.064-1.459-1.53-2.135a9.074,9.074,0,0,1-1.434-6.167,12.862,12.862,0,0,0-.042-2.776,3.338,3.338,0,0,0,2,.021l9.715-2.828a3.553,3.553,0,0,0,2.415-4.4l-.126-.431a3.453,3.453,0,0,0-2.233-2.346v-16.113a1.665,1.665,0,1,1,3.33,0v14.189c0,.047-.014.091-.014.138v8.533a3.554,3.554,0,0,0,3.55,3.55h.45a3.512,3.512,0,0,1,5-1.235h.45a3.5,3.5,0,0,0,1.189-.22A52.474,52.474,0,0,1,4744.4,3830.76Z" transform="translate(-4718.335 -3790.534)"/></svg>